<svg width="24" height="23" viewBox="0 0 24 23" fill="none" xmlns="http://www.w3.org/2000/svg">
<path d="M15.6641 19.2529C15.7868 19.1273 15.8555 18.9587 15.8555 18.7831C15.8555 18.6076 15.7868 18.439 15.6641 18.3134L8.81013 11.2822L15.6641 4.25239C15.7868 4.12679 15.8555 3.95819 15.8555 3.78261C15.8555 3.60704 15.7868 3.43844 15.6641 3.31284C15.6045 3.25159 15.5332 3.20291 15.4544 3.16968C15.3757 3.13644 15.2911 3.11931 15.2056 3.11931C15.1201 3.11931 15.0355 3.13644 14.9567 3.16968C14.878 3.20291 14.8067 3.25159 14.7471 3.31284L7.45847 10.7913C7.33045 10.9226 7.25881 11.0988 7.25881 11.2822C7.25881 11.4656 7.33045 11.6417 7.45847 11.7731L14.7471 19.2515C14.8067 19.3128 14.878 19.3614 14.9567 19.3947C15.0355 19.4279 15.1201 19.445 15.2056 19.445C15.2911 19.445 15.3757 19.4279 15.4544 19.3947C15.5332 19.3614 15.6045 19.3128 15.6641 19.2515V19.2529Z" fill="#121212"/>
</svg>
