<svg width="24" height="24" viewBox="0 0 24 24" fill="none" xmlns="http://www.w3.org/2000/svg">
<path d="M8.74609 13C9.34283 13 9.91513 13.2371 10.3371 13.659C10.759 14.081 10.9961 14.6533 10.9961 15.25V18.75C10.9961 19.3467 10.759 19.919 10.3371 20.341C9.91513 20.7629 9.34283 21 8.74609 21H5.24609C4.64936 21 4.07706 20.7629 3.6551 20.341C3.23315 19.919 2.99609 19.3467 2.99609 18.75V15.25C2.99609 14.6533 3.23315 14.081 3.6551 13.659C4.07706 13.2371 4.64936 13 5.24609 13H8.74609ZM18.7461 13C19.3428 13 19.9151 13.2371 20.3371 13.659C20.759 14.081 20.9961 14.6533 20.9961 15.25V18.75C20.9961 19.3467 20.759 19.919 20.3371 20.341C19.9151 20.7629 19.3428 21 18.7461 21H15.2461C14.6494 21 14.0771 20.7629 13.6551 20.341C13.2331 19.919 12.9961 19.3467 12.9961 18.75V15.25C12.9961 14.6533 13.2331 14.081 13.6551 13.659C14.0771 13.2371 14.6494 13 15.2461 13H18.7461ZM8.74609 14.5H5.24609C5.04718 14.5 4.85642 14.579 4.71576 14.7197C4.57511 14.8603 4.49609 15.0511 4.49609 15.25V18.75C4.49609 19.164 4.83209 19.5 5.24609 19.5H8.74609C8.94501 19.5 9.13577 19.421 9.27642 19.2803C9.41708 19.1397 9.49609 18.9489 9.49609 18.75V15.25C9.49609 15.0511 9.41708 14.8603 9.27642 14.7197C9.13577 14.579 8.94501 14.5 8.74609 14.5ZM18.7461 14.5H15.2461C15.0472 14.5 14.8564 14.579 14.7158 14.7197C14.5751 14.8603 14.4961 15.0511 14.4961 15.25V18.75C14.4961 19.164 14.8321 19.5 15.2461 19.5H18.7461C18.945 19.5 19.1358 19.421 19.2764 19.2803C19.4171 19.1397 19.4961 18.9489 19.4961 18.75V15.25C19.4961 15.0511 19.4171 14.8603 19.2764 14.7197C19.1358 14.579 18.945 14.5 18.7461 14.5ZM8.74609 3C9.34283 3 9.91513 3.23705 10.3371 3.65901C10.759 4.08097 10.9961 4.65326 10.9961 5.25V8.75C10.9961 9.34674 10.759 9.91903 10.3371 10.341C9.91513 10.7629 9.34283 11 8.74609 11H5.24609C4.64936 11 4.07706 10.7629 3.6551 10.341C3.23315 9.91903 2.99609 9.34674 2.99609 8.75V5.25C2.99609 4.65326 3.23315 4.08097 3.6551 3.65901C4.07706 3.23705 4.64936 3 5.24609 3H8.74609ZM18.7461 3C19.3428 3 19.9151 3.23705 20.3371 3.65901C20.759 4.08097 20.9961 4.65326 20.9961 5.25V8.75C20.9961 9.34674 20.759 9.91903 20.3371 10.341C19.9151 10.7629 19.3428 11 18.7461 11H15.2461C14.6494 11 14.0771 10.7629 13.6551 10.341C13.2331 9.91903 12.9961 9.34674 12.9961 8.75V5.25C12.9961 4.65326 13.2331 4.08097 13.6551 3.65901C14.0771 3.23705 14.6494 3 15.2461 3H18.7461ZM8.74609 4.5H5.24609C5.04718 4.5 4.85642 4.57902 4.71576 4.71967C4.57511 4.86032 4.49609 5.05109 4.49609 5.25V8.75C4.49609 9.164 4.83209 9.5 5.24609 9.5H8.74609C8.94501 9.5 9.13577 9.42098 9.27642 9.28033C9.41708 9.13968 9.49609 8.94891 9.49609 8.75V5.25C9.49609 5.05109 9.41708 4.86032 9.27642 4.71967C9.13577 4.57902 8.94501 4.5 8.74609 4.5ZM18.7461 4.5H15.2461C15.0472 4.5 14.8564 4.57902 14.7158 4.71967C14.5751 4.86032 14.4961 5.05109 14.4961 5.25V8.75C14.4961 9.164 14.8321 9.5 15.2461 9.5H18.7461C18.945 9.5 19.1358 9.42098 19.2764 9.28033C19.4171 9.13968 19.4961 8.94891 19.4961 8.75V5.25C19.4961 5.05109 19.4171 4.86032 19.2764 4.71967C19.1358 4.57902 18.945 4.5 18.7461 4.5Z" fill="#121212"/>
</svg>
