<svg width="24" height="24" viewBox="0 0 24 24" fill="none" xmlns="http://www.w3.org/2000/svg">
<path d="M4.25879 4C3.66205 4 3.08976 4.23705 2.6678 4.65901C2.24584 5.08097 2.00879 5.65326 2.00879 6.25V8.75C2.00879 9.34674 2.24584 9.91903 2.6678 10.341C3.08976 10.7629 3.66205 11 4.25879 11H6.75879C7.35553 11 7.92782 10.7629 8.34978 10.341C8.77174 9.91903 9.00879 9.34674 9.00879 8.75V6.25C9.00879 5.65326 8.77174 5.08097 8.34978 4.65901C7.92782 4.23705 7.35553 4 6.75879 4H4.25879ZM3.50879 6.25C3.50879 6.05109 3.58781 5.86032 3.72846 5.71967C3.86911 5.57902 4.05988 5.5 4.25879 5.5H6.75879C6.9577 5.5 7.14847 5.57902 7.28912 5.71967C7.42977 5.86032 7.50879 6.05109 7.50879 6.25V8.75C7.50879 8.94891 7.42977 9.13968 7.28912 9.28033C7.14847 9.42098 6.9577 9.5 6.75879 9.5H4.25879C4.05988 9.5 3.86911 9.42098 3.72846 9.28033C3.58781 9.13968 3.50879 8.94891 3.50879 8.75V6.25ZM11.2588 5C11.0599 5 10.8691 5.07902 10.7285 5.21967C10.5878 5.36032 10.5088 5.55109 10.5088 5.75C10.5088 5.94891 10.5878 6.13968 10.7285 6.28033C10.8691 6.42098 11.0599 6.5 11.2588 6.5H21.2588C21.4577 6.5 21.6485 6.42098 21.7891 6.28033C21.9298 6.13968 22.0088 5.94891 22.0088 5.75C22.0088 5.55109 21.9298 5.36032 21.7891 5.21967C21.6485 5.07902 21.4577 5 21.2588 5H11.2588ZM11.2588 8C11.0599 8 10.8691 8.07902 10.7285 8.21967C10.5878 8.36032 10.5088 8.55109 10.5088 8.75C10.5088 8.94891 10.5878 9.13968 10.7285 9.28033C10.8691 9.42098 11.0599 9.5 11.2588 9.5H18.2588C18.4577 9.5 18.6485 9.42098 18.7891 9.28033C18.9298 9.13968 19.0088 8.94891 19.0088 8.75C19.0088 8.55109 18.9298 8.36032 18.7891 8.21967C18.6485 8.07902 18.4577 8 18.2588 8H11.2588ZM4.25879 13C3.66205 13 3.08976 13.2371 2.6678 13.659C2.24584 14.081 2.00879 14.6533 2.00879 15.25V17.75C2.00879 18.0455 2.06699 18.3381 2.18006 18.611C2.29313 18.884 2.45887 19.1321 2.6678 19.341C2.87673 19.5499 3.12477 19.7157 3.39775 19.8287C3.67073 19.9418 3.96331 20 4.25879 20H6.75879C7.05426 20 7.34684 19.9418 7.61983 19.8287C7.89281 19.7157 8.14085 19.5499 8.34978 19.341C8.55871 19.1321 8.72444 18.884 8.83752 18.611C8.95059 18.3381 9.00879 18.0455 9.00879 17.75V15.25C9.00879 14.6533 8.77174 14.081 8.34978 13.659C7.92782 13.2371 7.35553 13 6.75879 13H4.25879ZM3.50879 15.25C3.50879 15.0511 3.58781 14.8603 3.72846 14.7197C3.86911 14.579 4.05988 14.5 4.25879 14.5H6.75879C6.9577 14.5 7.14847 14.579 7.28912 14.7197C7.42977 14.8603 7.50879 15.0511 7.50879 15.25V17.75C7.50879 17.9489 7.42977 18.1397 7.28912 18.2803C7.14847 18.421 6.9577 18.5 6.75879 18.5H4.25879C4.05988 18.5 3.86911 18.421 3.72846 18.2803C3.58781 18.1397 3.50879 17.9489 3.50879 17.75V15.25ZM11.2588 14C11.0599 14 10.8691 14.079 10.7285 14.2197C10.5878 14.3603 10.5088 14.5511 10.5088 14.75C10.5088 14.9489 10.5878 15.1397 10.7285 15.2803C10.8691 15.421 11.0599 15.5 11.2588 15.5H21.2588C21.4577 15.5 21.6485 15.421 21.7891 15.2803C21.9298 15.1397 22.0088 14.9489 22.0088 14.75C22.0088 14.5511 21.9298 14.3603 21.7891 14.2197C21.6485 14.079 21.4577 14 21.2588 14H11.2588ZM11.2588 17C11.0599 17 10.8691 17.079 10.7285 17.2197C10.5878 17.3603 10.5088 17.5511 10.5088 17.75C10.5088 17.9489 10.5878 18.1397 10.7285 18.2803C10.8691 18.421 11.0599 18.5 11.2588 18.5H18.2588C18.4577 18.5 18.6485 18.421 18.7891 18.2803C18.9298 18.1397 19.0088 17.9489 19.0088 17.75C19.0088 17.5511 18.9298 17.3603 18.7891 17.2197C18.6485 17.079 18.4577 17 18.2588 17H11.2588Z" fill="#121212"/>
</svg>
