<svg width="37" height="37" viewBox="0 0 37 37" fill="none" xmlns="http://www.w3.org/2000/svg">
<path d="M15.5003 4.75098C17.5554 4.75072 19.5686 5.33281 21.3065 6.4298C23.0443 7.52679 24.4358 9.09377 25.3196 10.9492C26.2035 12.8046 26.5434 14.8724 26.3002 16.9131C26.057 18.9538 25.2405 20.8838 23.9453 22.4795L31.2953 29.8295C31.4971 30.03 31.6155 30.2995 31.6266 30.5837C31.6377 30.868 31.5407 31.1459 31.3551 31.3615C31.1695 31.5771 30.9092 31.7144 30.6264 31.7457C30.3437 31.7771 30.0596 31.7002 29.8313 31.5305L29.7053 31.421L22.3538 24.071C21.0021 25.1677 19.4069 25.9239 17.7023 26.276C15.9977 26.6282 14.2335 26.5661 12.5579 26.0949C10.8822 25.6237 9.34421 24.7571 8.07303 23.5681C6.80185 22.379 5.83465 20.9022 5.25272 19.2617C4.67079 17.6213 4.49113 15.8651 4.72884 14.1408C4.96655 12.4165 5.61469 10.7745 6.61878 9.35264C7.62286 7.93083 8.95357 6.77081 10.4991 5.97006C12.0446 5.16932 13.7597 4.75124 15.5003 4.75098ZM15.5003 7.00098C14.3676 7.00098 13.2461 7.22407 12.1996 7.65752C11.1532 8.09096 10.2024 8.72628 9.40149 9.52718C8.60059 10.3281 7.96527 11.2789 7.53183 12.3253C7.09838 13.3718 6.87529 14.4933 6.87529 15.626C6.87529 16.7586 7.09838 17.8802 7.53183 18.9266C7.96527 19.9731 8.60059 20.9239 9.40149 21.7248C10.2024 22.5257 11.1532 23.161 12.1996 23.5944C13.2461 24.0279 14.3676 24.251 15.5003 24.251C17.7878 24.251 19.9816 23.3423 21.5991 21.7248C23.2166 20.1073 24.1253 17.9135 24.1253 15.626C24.1253 13.3385 23.2166 11.1447 21.5991 9.52718C19.9816 7.90968 17.7878 7.00098 15.5003 7.00098Z" fill="#9A9BA8"/>
</svg>
